<?xml version="1.0" standalone="no"?>
<!DOCTYPE svg PUBLIC "-//W3C//DTD SVG 20010904//EN"
 "http://www.w3.org/TR/2001/REC-SVG-20010904/DTD/svg10.dtd">
<svg version="1.0" xmlns="http://www.w3.org/2000/svg"
 width="1303.000000pt" height="1303.000000pt" viewBox="0 0 1303.000000 1303.000000"
 preserveAspectRatio="xMidYMid meet">
<metadata>
Created by potrace 1.14, written by Peter Selinger 2001-2017
</metadata>
<g transform="translate(0.000000,1303.000000) scale(0.100000,-0.100000)"
fill="#000000" stroke="none">
<path d="M677 12259 c-9 -17 -14 -36 -10 -41 3 -7 1 -8 -5 -4 -7 4 -13 0 -13
-11 -1 -10 -4 -29 -7 -43 -3 -14 -5 -54 -5 -90 0 -54 7 -85 47 -185 26 -66 56
-141 66 -167 29 -77 179 -357 234 -438 76 -112 151 -213 171 -230 10 -8 36
-37 58 -65 58 -75 361 -352 423 -388 6 -4 0 34 -14 86 -34 127 -40 341 -12
418 28 75 56 111 122 154 l59 39 -53 31 c-29 17 -71 42 -93 55 -22 14 -43 24
-47 22 -5 -1 -8 3 -8 9 0 6 -7 8 -16 5 -8 -3 -13 -2 -10 3 3 4 -14 23 -37 41
-152 121 -294 274 -400 433 -50 74 -172 287 -172 299 0 4 -8 16 -17 27 -9 11
-14 22 -11 25 4 3 -2 15 -12 26 -16 18 -31 20 -119 20 l-101 0 -18 -31z"/>
<path d="M12106 12265 c-9 -13 -16 -28 -16 -33 0 -5 -31 -63 -70 -131 -38 -67
-70 -124 -70 -126 0 -10 -117 -173 -171 -240 -66 -81 -189 -202 -271 -267 -31
-25 -54 -49 -50 -53 4 -5 2 -5 -5 -1 -11 6 -53 -17 -153 -84 -14 -9 -33 -19
-42 -23 -26 -9 -22 -23 11 -36 42 -18 111 -90 132 -140 26 -59 41 -170 33
-245 -5 -51 -29 -180 -51 -275 -6 -23 -3 -22 43 14 145 116 356 314 348 326
-3 5 -2 8 3 7 9 -3 65 56 137 147 100 125 270 401 265 431 0 4 4 10 9 13 16
11 100 195 153 338 48 130 51 142 47 214 -4 57 -12 91 -32 133 l-27 56 -104 0
c-98 0 -103 -1 -119 -25z"/>
<path d="M205 11631 c-4 -7 28 -111 52 -171 3 -8 8 -23 9 -32 5 -24 75 -192
83 -198 3 -3 7 -9 8 -15 9 -53 202 -407 287 -526 26 -35 70 -98 100 -139 86
-121 210 -277 272 -343 32 -34 56 -63 54 -63 -5 -1 83 -98 203 -224 29 -30 55
-54 60 -52 4 1 7 -4 7 -10 0 -18 116 -129 124 -120 4 4 6 2 4 -4 -5 -18 72
-98 84 -86 7 7 7 19 0 39 -46 122 -56 162 -67 263 -13 109 -11 133 13 136 4 0
41 4 82 8 69 7 135 1 208 -20 l22 -6 -21 48 c-11 27 -37 105 -58 174 l-36 125
-50 24 c-88 42 -179 98 -235 146 -77 65 -220 206 -220 217 0 5 -5 6 -10 3 -6
-3 -10 0 -10 7 0 7 -9 21 -20 33 -32 33 -54 61 -67 81 -6 10 -16 18 -23 16 -6
-1 -8 3 -4 9 3 6 3 14 -2 18 -13 9 -58 71 -129 175 -33 50 -77 114 -96 141
-19 28 -41 63 -49 80 -21 41 -94 147 -117 167 -33 30 -117 66 -193 83 -82 18
-257 29 -265 16z"/>
<path d="M12648 11630 c-48 -5 -91 -11 -96 -14 -5 -3 -23 -8 -41 -11 -85 -15
-183 -90 -226 -172 -11 -21 -22 -40 -25 -43 -14 -12 -73 -116 -73 -128 0 -6
-2 -10 -5 -7 -9 8 -162 -227 -155 -238 3 -5 2 -7 -4 -4 -9 6 -70 -59 -90 -98
-19 -34 -225 -251 -293 -307 -95 -79 -124 -98 -224 -148 l-90 -45 -16 -70
c-22 -92 -47 -169 -77 -229 l-25 -49 24 7 c77 22 143 28 224 18 47 -5 87 -12
90 -15 14 -14 -20 -230 -50 -322 -22 -64 -30 -102 -23 -106 5 -4 52 36 105 90
52 53 128 130 169 173 43 43 72 81 68 87 -3 6 -2 10 3 9 8 -3 82 67 82 76 0 2
18 23 40 46 22 23 37 46 34 51 -3 5 -2 8 3 7 16 -5 104 98 268 317 41 55 79
105 83 110 23 31 118 175 135 205 10 19 48 84 83 145 64 111 158 316 206 450
43 118 70 206 65 212 -10 10 -84 11 -169 3z"/>
<path d="M1850 11132 c-55 -27 -84 -95 -82 -196 2 -168 79 -552 141 -708 49
-123 133 -288 144 -281 6 3 7 1 3 -5 -3 -5 27 -55 68 -109 91 -119 180 -209
302 -304 86 -67 265 -175 250 -151 -3 6 -10 49 -15 97 -22 220 46 433 186 576
l45 46 -49 29 c-83 49 -82 49 -228 164 -38 30 -73 54 -78 52 -5 -1 -6 1 -4 6
3 4 -28 41 -69 82 -117 116 -219 251 -260 342 -9 21 -21 35 -27 31 -6 -3 -7
-1 -3 5 4 6 -5 35 -20 63 -33 66 -95 235 -88 242 9 9 -101 37 -143 37 -21 0
-54 -8 -73 -18z"/>
<path d="M11004 11134 c-41 -15 -42 -16 -78 -120 -20 -58 -50 -133 -66 -167
-16 -33 -26 -66 -23 -71 3 -6 3 -8 -2 -4 -4 4 -23 -18 -41 -48 -50 -83 -171
-238 -221 -285 -24 -22 -41 -45 -37 -51 4 -7 3 -8 -5 -4 -7 5 -31 -12 -61 -42
-28 -28 -50 -48 -50 -46 0 3 -30 -19 -67 -48 -95 -75 -141 -108 -148 -108 -10
0 -65 -43 -65 -51 0 -4 9 -11 21 -14 11 -4 18 -9 16 -12 -3 -3 19 -35 49 -71
108 -134 159 -330 136 -522 -6 -47 -9 -86 -7 -88 9 -9 172 89 231 137 17 14
52 44 80 66 149 122 293 306 377 486 83 175 119 273 142 386 42 210 57 308 70
458 9 109 -21 186 -87 221 -34 18 -111 17 -164 -2z"/>
<path d="M105 11092 c-29 -6 -74 -52 -91 -92 -12 -27 -14 -65 -11 -170 4 -123
8 -144 41 -240 45 -129 184 -412 199 -403 6 3 7 1 3 -6 -8 -12 52 -121 133
-246 25 -38 48 -74 51 -80 13 -26 64 -101 82 -119 11 -12 28 -37 38 -57 10
-19 31 -49 47 -66 16 -17 40 -46 53 -66 76 -108 214 -260 405 -448 121 -118
128 -124 234 -213 41 -33 91 -76 111 -93 35 -31 57 -43 46 -25 -18 29 -39 256
-32 342 10 133 27 191 103 367 6 16 -157 184 -171 176 -6 -4 -8 -3 -5 1 8 9
-109 132 -122 128 -6 -1 -8 1 -5 6 3 4 -21 33 -52 64 -89 88 -277 300 -374
421 -116 145 -318 435 -318 456 0 6 -5 11 -12 11 -6 0 -9 3 -6 6 10 10 -150
269 -188 305 -13 12 -24 19 -24 15 0 -4 -7 0 -16 8 -8 9 -23 17 -32 17 -9 1
-28 2 -42 4 -14 1 -34 0 -45 -3z"/>
<path d="M12825 11089 c-47 -13 -175 -164 -160 -188 3 -7 1 -10 -5 -9 -7 2
-35 -40 -64 -92 -45 -83 -200 -326 -216 -340 -3 -3 -17 -21 -30 -40 -13 -19
-29 -40 -35 -47 -5 -7 -14 -18 -20 -25 -81 -104 -132 -166 -148 -179 -12 -10
-17 -21 -12 -29 5 -8 4 -11 -2 -7 -6 4 -30 -17 -54 -46 -44 -53 -124 -139
-239 -258 -36 -37 -70 -73 -76 -81 -6 -7 -69 -68 -139 -136 l-127 -123 35 -77
c19 -42 40 -93 46 -113 39 -125 46 -323 16 -450 -8 -35 -15 -70 -15 -77 0 -17
62 32 240 188 201 177 359 344 545 575 98 123 125 162 117 169 -3 3 -1 6 4 6
25 0 241 348 363 585 71 136 126 265 114 265 -3 0 -1 6 5 13 26 32 53 157 58
262 4 98 2 116 -18 164 -13 30 -34 62 -48 73 -29 21 -92 29 -135 17z"/>
<path d="M53 10283 c4 -3 1 -13 -6 -21 -8 -11 -12 -65 -12 -186 0 -159 2 -182
34 -318 19 -81 38 -145 42 -142 5 3 6 -1 3 -9 -12 -32 137 -371 245 -556 91
-157 219 -346 286 -423 17 -19 43 -52 60 -74 66 -86 335 -343 453 -432 68 -50
128 -92 134 -92 6 0 19 -6 27 -14 29 -25 183 -106 192 -100 5 3 -2 22 -14 42
-52 83 -74 149 -92 268 -11 76 18 224 69 344 5 12 -14 31 -65 70 -40 29 -78
53 -85 53 -7 0 -12 3 -11 7 1 3 -49 51 -112 105 -62 54 -128 112 -145 129 -18
17 -48 45 -67 62 -18 16 -74 75 -124 129 -49 55 -102 112 -117 127 -14 15 -24
28 -22 28 3 0 -11 17 -30 38 -18 20 -51 60 -72 87 -20 28 -60 79 -89 115 -28
36 -68 91 -89 123 -21 31 -43 57 -49 57 -6 0 -8 3 -4 6 3 4 -11 32 -32 63 -49
73 -195 322 -255 434 -26 48 -50 87 -53 87 -4 0 -3 -3 0 -7z"/>
<path d="M12926 10220 c-19 -40 -33 -77 -29 -84 3 -6 3 -8 -2 -4 -6 6 -114
-162 -159 -249 -9 -18 -52 -84 -97 -148 -48 -69 -77 -120 -73 -128 4 -6 4 -9
0 -5 -7 6 -86 -87 -145 -170 -13 -19 -55 -71 -93 -115 -39 -45 -79 -92 -89
-105 -11 -13 -17 -28 -13 -34 4 -6 3 -8 -3 -5 -6 4 -51 -34 -99 -84 -113 -116
-186 -186 -249 -239 -27 -23 -57 -49 -65 -58 -8 -10 -68 -57 -132 -105 -64
-48 -120 -92 -123 -97 -3 -5 7 -49 24 -97 35 -104 43 -148 43 -228 -1 -90 -11
-133 -47 -212 -18 -39 -30 -74 -27 -77 3 -3 0 -6 -7 -6 -7 0 -17 -13 -22 -30
-6 -16 -16 -30 -22 -30 -6 0 -8 -3 -4 -6 6 -7 241 121 292 159 180 133 272
213 267 231 -2 6 0 8 4 4 10 -11 35 12 27 25 -3 6 -1 7 6 3 11 -7 174 154 226
223 11 15 42 53 68 84 29 34 46 61 41 68 -4 7 -3 9 3 6 14 -9 76 80 67 95 -4
6 -3 8 3 5 10 -6 59 57 61 77 0 5 4 12 10 15 28 18 179 291 236 426 20 50 44
104 51 120 25 55 76 200 79 225 2 14 6 32 9 40 12 29 36 167 47 261 11 95 4
263 -10 254 -5 -3 -6 4 -3 14 3 11 1 27 -5 37 -8 14 -16 4 -46 -56z"/>
<path d="M2956 9918 c-71 -78 -109 -145 -130 -226 -30 -117 -16 -287 34 -426
34 -94 145 -308 211 -406 34 -50 59 -93 57 -96 -3 -2 -31 7 -62 21 -110 49
-190 65 -305 62 -89 -3 -115 -8 -163 -30 -58 -26 -58 -26 -58 -70 0 -50 60
-183 104 -230 14 -15 23 -27 19 -27 -8 0 158 -165 201 -199 21 -17 43 -28 49
-24 5 3 7 2 4 -4 -3 -5 12 -25 35 -43 36 -30 38 -35 22 -41 -11 -4 -35 -8 -54
-8 -85 -2 -456 -120 -467 -149 -19 -49 130 -213 341 -374 132 -101 352 -257
373 -265 20 -8 16 -21 -9 -28 -109 -33 -279 -148 -262 -177 4 -6 3 -8 -3 -5
-5 3 -17 -8 -27 -25 l-18 -30 38 -37 c82 -78 209 -154 384 -231 52 -23 96 -43
98 -45 2 -1 -8 -27 -22 -58 -42 -95 -59 -168 -60 -257 -1 -109 9 -160 32 -160
10 0 105 21 212 46 107 25 205 47 217 50 12 2 60 18 107 34 46 17 89 30 94 30
5 0 6 -21 1 -52 -4 -29 -10 -73 -13 -97 -3 -24 -8 -46 -10 -49 -10 -9 -265
-71 -376 -91 -179 -32 -289 -42 -500 -46 -273 -4 -485 16 -790 75 -202 39
-195 38 -247 29 -56 -11 -97 -44 -83 -68 15 -26 181 -195 235 -238 93 -74 168
-123 178 -116 5 3 7 1 4 -4 -8 -12 20 -26 34 -17 5 3 8 0 7 -6 -3 -12 192
-102 301 -139 115 -39 247 -54 506 -55 301 -1 467 15 696 68 67 15 62 19 74
-66 2 -21 6 -43 7 -49 4 -16 -173 -55 -342 -74 -320 -37 -557 -39 -751 -7 -69
12 -132 24 -140 26 -18 7 -95 -47 -91 -63 1 -7 -2 -10 -8 -6 -22 13 -90 -86
-90 -131 0 -33 62 -127 112 -169 59 -50 108 -86 108 -78 0 4 4 3 8 -3 4 -6 36
-27 72 -46 167 -92 478 -136 700 -99 122 21 348 77 460 115 57 20 108 36 112
36 4 0 34 -53 66 -118 33 -65 71 -137 86 -160 32 -51 32 -52 4 -46 -126 30
-260 -33 -319 -149 -28 -53 -33 -151 -13 -211 l15 -43 -43 -64 c-24 -35 -47
-69 -53 -76 -5 -6 -25 -33 -43 -60 -35 -52 -271 -381 -284 -398 -16 -20 -103
-132 -128 -165 -14 -18 -32 -41 -40 -50 -8 -10 -33 -39 -55 -66 -160 -194
-388 -423 -533 -534 -18 -14 -43 -33 -54 -43 -28 -23 -86 -66 -178 -133 -41
-29 -79 -57 -85 -62 -5 -4 -75 -52 -155 -107 -80 -54 -146 -102 -148 -107 -2
-4 -8 -8 -12 -8 -8 0 -90 -55 -213 -143 -65 -47 -261 -200 -300 -236 -80 -73
-184 -185 -237 -256 -51 -70 -151 -241 -156 -270 -1 -5 -8 -23 -15 -40 -7 -16
-13 -32 -14 -35 -49 -160 -58 -290 -31 -425 10 -48 76 -171 105 -197 130 -112
344 -142 566 -80 39 11 77 21 85 23 8 2 17 6 20 9 3 3 49 27 103 54 55 27 119
64 143 82 24 19 46 34 49 34 14 0 223 201 289 280 50 57 242 314 283 377 21
32 41 59 46 61 4 2 7 10 7 17 0 7 4 15 8 17 4 2 21 23 38 48 17 25 51 75 77
112 26 38 68 98 94 135 52 76 185 257 211 288 9 11 48 58 86 105 146 179 466
470 742 676 44 33 88 67 98 77 11 9 23 17 27 17 4 0 14 6 21 13 14 13 94 70
228 162 47 32 87 61 90 64 3 3 39 29 80 57 75 51 76 52 105 36 28 -15 155 -22
195 -10 67 19 142 87 173 156 21 48 28 145 14 194 l-7 28 60 -36 c199 -116
542 -242 765 -280 186 -32 314 -41 520 -39 116 2 221 6 235 8 14 3 45 8 70 11
25 3 55 8 66 10 12 2 39 7 60 10 22 4 55 11 74 16 19 5 46 11 60 14 45 8 195
54 266 81 38 15 74 28 79 29 23 6 196 89 302 146 49 26 255 165 304 205 24 20
62 50 84 68 40 33 230 220 275 273 21 24 77 92 113 139 101 130 270 423 301
523 4 12 12 22 17 22 6 0 90 -27 187 -60 97 -32 188 -61 202 -64 14 -2 63 -13
110 -24 142 -34 239 -45 367 -44 186 1 394 47 511 114 69 39 154 107 147 118
-3 4 3 6 12 4 13 -2 33 17 67 61 71 92 70 91 51 142 -22 56 -66 107 -123 143
-42 26 -45 27 -100 14 -196 -43 -445 -52 -707 -23 -49 5 -110 12 -135 15 -113
12 -144 17 -285 45 -82 17 -153 34 -157 37 -3 4 0 36 6 72 9 46 17 65 27 63 8
-1 79 -15 159 -32 276 -57 351 -65 650 -65 324 0 421 12 584 73 152 57 315
138 346 171 3 3 30 22 60 42 31 21 64 46 75 55 94 86 154 143 151 143 -2 0 16
21 40 47 24 25 44 52 44 59 0 8 -18 23 -41 35 -54 27 -114 26 -264 -5 -113
-23 -322 -56 -460 -71 -33 -4 -154 -8 -270 -10 -331 -4 -599 31 -910 120 -44
12 -99 28 -122 34 -45 12 -48 19 -58 132 -3 24 -7 54 -9 67 -3 12 -2 22 1 22
3 0 62 -20 131 -46 116 -42 174 -57 479 -128 154 -36 150 -37 159 27 16 111 4
212 -40 317 -35 84 -47 122 -36 115 5 -3 50 15 101 40 50 25 97 45 103 45 17
0 176 98 232 144 74 59 78 68 55 114 -37 72 -120 129 -290 199 -24 9 -23 10
32 50 31 22 54 42 52 45 -3 3 1 5 8 5 18 0 285 191 390 279 16 14 25 29 21 35
-5 8 -3 9 6 4 18 -11 167 145 192 202 11 25 16 49 11 53 -4 4 -28 14 -53 23
-25 8 -82 29 -128 45 -92 34 -227 67 -317 77 -34 4 -53 10 -43 14 9 3 40 27
70 53 29 26 67 58 85 71 17 12 52 46 77 73 36 41 43 54 33 64 -10 12 -9 12 5
1 14 -11 23 -5 63 46 64 80 106 166 112 229 7 68 -2 78 -84 104 -123 38 -282
23 -420 -40 -36 -17 -68 -28 -70 -26 -6 6 12 38 82 146 73 112 88 140 78 140
-4 0 -3 4 2 8 22 15 119 248 110 263 -4 5 -2 9 3 9 17 0 37 124 36 225 -1 152
-50 266 -163 386 -33 34 -43 39 -58 30 -36 -19 -302 -284 -296 -294 3 -6 2 -7
-4 -4 -13 8 -86 -67 -76 -78 5 -4 3 -5 -4 -1 -6 3 -15 0 -20 -8 -4 -8 -26 -34
-48 -58 -121 -131 -295 -360 -391 -515 -33 -54 -95 -168 -137 -253 -110 -223
-149 -379 -149 -592 0 -142 19 -259 64 -398 61 -183 40 -315 -60 -390 -26 -19
-50 -39 -54 -45 -4 -5 -8 -7 -8 -3 0 4 -23 -1 -50 -12 -28 -11 -55 -20 -60
-20 -5 0 -32 39 -61 88 -55 90 -150 226 -192 274 -13 15 -32 39 -43 54 -45 63
-279 286 -385 366 -62 48 -121 93 -130 100 -15 12 -33 24 -81 51 -13 6 -25 15
-28 19 -9 11 -231 125 -310 158 -41 18 -84 36 -95 41 -30 12 -224 78 -230 78
-3 0 -47 9 -98 21 -124 29 -238 49 -307 54 -20 1 -40 4 -45 7 -26 14 -515 0
-598 -17 -12 -2 -35 -7 -52 -9 -16 -3 -73 -15 -127 -26 -53 -11 -102 -22 -110
-23 -7 -2 -20 -5 -28 -8 -8 -3 -60 -20 -115 -37 -55 -18 -109 -36 -120 -41
-225 -97 -344 -159 -485 -253 -80 -54 -182 -130 -215 -160 -11 -10 -37 -33
-59 -50 -51 -43 -206 -201 -276 -283 -44 -51 -116 -147 -156 -209 -21 -33 -42
-61 -46 -63 -5 -2 -8 -8 -8 -12 0 -5 -13 -29 -28 -54 l-29 -45 -31 19 c-18 11
-32 18 -32 15 0 -14 -102 108 -114 136 -17 41 -13 214 5 229 3 3 18 41 32 85
46 146 52 185 51 365 -1 222 -28 338 -134 565 -74 159 -271 479 -330 535 -3 3
-13 16 -21 30 -37 57 -275 328 -353 399 -21 20 -43 35 -48 33 -5 -1 -7 2 -4 7
6 9 -230 241 -245 241 -3 0 -32 -28 -63 -62z m150 -514 c14 -24 30 -44 35 -44
5 0 9 -5 9 -11 0 -20 41 -69 52 -63 6 4 8 3 5 -2 -6 -10 92 -140 172 -229 25
-27 116 -121 201 -208 86 -86 155 -159 152 -162 -3 -2 -14 1 -26 7 -11 7 -24
11 -28 10 -5 -1 -8 2 -8 6 0 5 -22 21 -50 36 -27 15 -52 31 -55 37 -4 5 -10 7
-15 4 -5 -3 -11 -1 -15 5 -4 6 -11 7 -17 4 -7 -4 -8 -2 -4 4 8 14 -84 83 -102
77 -7 -3 -11 -1 -8 4 3 5 -27 38 -67 74 -89 80 -157 147 -150 147 2 0 -11 21
-30 48 -64 88 -107 194 -107 268 0 58 17 55 56 -12z m6864 11 c0 -48 -31 -154
-56 -193 -8 -12 -12 -28 -8 -35 4 -7 4 -9 -1 -5 -11 10 -56 -52 -48 -65 3 -6
1 -7 -5 -3 -7 4 -12 2 -12 -4 0 -20 -192 -196 -290 -267 -109 -78 -204 -137
-245 -153 -28 -11 -28 -10 -12 8 9 10 14 22 10 27 -5 4 -3 5 4 1 8 -4 62 43
142 124 71 71 127 130 123 130 -4 0 1 5 11 11 9 6 14 15 11 21 -4 6 -3 8 3 5
14 -9 47 29 37 44 -4 7 -3 10 3 6 17 -10 182 185 175 206 -1 5 1 6 6 3 5 -3
33 31 63 75 73 109 73 109 81 109 5 0 8 -20 8 -45z m-7125 -745 c14 -5 36 -12
50 -14 47 -9 242 -79 370 -134 123 -52 257 -131 317 -185 26 -25 68 -121 56
-132 -3 -3 -34 6 -69 21 -103 43 -458 224 -529 269 -36 23 -94 60 -131 83 -76
49 -132 102 -107 102 9 0 28 -4 43 -10z m7387 3 c-6 -2 -10 -9 -6 -14 3 -5 2
-8 -3 -7 -8 3 -105 -71 -111 -84 -2 -5 -9 -8 -16 -8 -6 0 -34 -15 -61 -33 -80
-52 -232 -137 -244 -137 -7 0 -9 -5 -5 -12 4 -6 3 -8 -4 -4 -6 3 -74 -25 -150
-64 -122 -60 -233 -110 -247 -110 -12 0 -3 31 20 74 14 26 22 52 19 58 -4 7
-2 8 4 4 6 -3 26 7 44 22 115 101 379 218 698 310 36 10 85 15 62 5z m-3512
-236 c56 -7 117 -16 150 -23 13 -3 38 -7 55 -9 17 -3 74 -16 126 -30 52 -15
110 -31 130 -35 52 -13 244 -92 338 -139 124 -62 291 -166 381 -237 198 -158
347 -311 481 -494 66 -89 149 -222 149 -238 0 -5 4 -12 8 -14 12 -4 87 -162
132 -277 39 -99 95 -281 103 -338 3 -17 7 -35 10 -40 3 -4 8 -33 12 -63 4 -30
8 -57 10 -60 2 -3 6 -34 10 -70 3 -36 8 -83 10 -105 5 -48 5 -318 1 -360 -2
-16 -7 -61 -10 -99 -4 -39 -9 -79 -11 -90 -3 -12 -7 -32 -9 -46 -25 -144 -78
-334 -126 -450 -17 -41 -33 -79 -35 -85 -1 -5 -6 -20 -10 -32 -4 -13 -12 -23
-18 -23 -6 0 -8 -3 -4 -6 13 -14 -208 -386 -265 -446 -7 -7 -33 -38 -58 -68
-54 -67 -229 -242 -289 -290 -24 -19 -60 -50 -80 -67 -20 -18 -41 -33 -48 -33
-6 0 -13 -4 -15 -9 -9 -25 -325 -210 -428 -250 -19 -8 -60 -25 -90 -39 -30
-13 -62 -25 -70 -27 -9 -2 -67 -19 -130 -39 -63 -19 -131 -38 -150 -41 -84
-14 -96 -16 -110 -20 -8 -2 -37 -7 -65 -10 -27 -4 -77 -10 -110 -15 -65 -9
-464 -6 -505 4 -14 3 -45 8 -70 11 -48 6 -85 12 -85 15 0 1 -11 3 -25 5 -63 8
-109 19 -200 47 -36 11 -72 21 -80 23 -100 22 -416 172 -550 260 -237 157
-432 337 -595 549 -132 173 -251 377 -314 541 -13 33 -29 74 -36 90 -13 31
-32 88 -40 121 -3 10 -18 69 -34 131 -16 61 -32 133 -35 160 -4 26 -9 59 -11
73 -20 126 -26 421 -11 560 11 101 14 125 16 125 1 0 3 16 5 35 2 28 37 184
60 270 49 189 177 466 298 644 185 276 416 506 678 675 52 34 99 64 104 69 40
30 353 175 405 187 8 2 42 13 75 24 56 18 163 47 210 57 56 12 73 15 105 20
19 3 46 7 60 10 14 2 57 7 95 10 39 3 71 7 73 9 5 4 382 -3 432 -8z m-3386
-437 c104 -13 290 -45 373 -63 53 -12 59 -16 69 -48 7 -19 15 -61 19 -93 l8
-59 -49 7 c-79 12 -450 86 -564 113 -58 13 -136 31 -175 38 -106 20 -209 46
-218 55 -14 12 40 40 106 54 72 16 292 14 431 -4z m6760 10 c69 -10 130 -36
128 -55 -1 -16 -42 -26 -562 -136 -202 -42 -430 -82 -437 -75 -2 2 4 44 14 92
l19 88 110 23 c291 59 579 84 728 63z m-6372 -781 c32 -6 58 -15 58 -19 0 -16
-280 -72 -445 -89 -106 -11 -270 -9 -272 4 -4 23 232 95 377 115 75 10 198 5
282 -11z m5968 -9 c107 -20 271 -78 278 -97 10 -32 -296 -9 -551 42 -217 42
-224 48 -85 71 99 16 224 10 358 -16z m-5711 -160 c21 -24 -279 -374 -444
-519 -53 -47 -60 -51 -63 -32 -5 30 56 143 132 247 76 103 64 88 141 182 33
40 60 77 60 82 0 13 11 21 47 33 34 12 119 16 127 7z m5174 -5 c42 -6 51 -11
69 -41 11 -19 25 -31 31 -27 5 3 8 2 4 -3 -7 -12 48 -86 57 -76 4 4 6 3 4 -3
-3 -11 75 -121 125 -176 9 -10 14 -19 10 -19 -3 0 1 -8 9 -17 26 -31 87 -141
81 -147 -4 -3 -2 -6 4 -6 6 0 8 -11 5 -25 -4 -25 -5 -24 -62 25 -31 27 -61 46
-65 42 -5 -4 -6 -2 -2 3 3 6 -30 45 -73 88 -43 42 -75 77 -72 77 2 0 -16 22
-40 48 -54 57 -198 249 -198 263 0 6 15 8 33 5 17 -3 54 -8 80 -11z m-4865
-2497 c14 -12 180 -177 368 -366 351 -350 366 -369 348 -424 -22 -74 -91 -106
-157 -74 -41 20 -732 713 -742 744 -15 50 11 113 60 140 31 17 93 7 123 -20z
m88 -647 c134 -135 244 -249 244 -253 0 -4 -6 -8 -14 -8 -8 0 -16 -4 -18 -8
-1 -4 -39 -32 -83 -62 -44 -30 -84 -58 -90 -63 -5 -4 -73 -52 -150 -106 -77
-55 -145 -103 -150 -108 -6 -4 -46 -35 -90 -68 -44 -33 -82 -62 -85 -65 -3 -3
-25 -21 -50 -40 -25 -19 -61 -48 -81 -65 -19 -16 -51 -43 -71 -60 -19 -16 -61
-52 -93 -80 -92 -78 -292 -281 -376 -380 -105 -124 -234 -298 -380 -510 -68
-99 -126 -182 -129 -185 -3 -3 -23 -32 -44 -64 -21 -33 -43 -64 -47 -70 -5 -6
-35 -47 -66 -91 -302 -424 -563 -633 -863 -691 -143 -27 -299 9 -348 81 -67
96 -67 280 -1 457 63 171 190 343 365 496 27 24 58 51 69 61 29 26 265 201
270 201 3 0 13 7 23 16 9 9 112 80 227 159 116 79 215 148 222 154 7 6 15 11
17 11 3 0 14 6 23 14 10 8 47 36 83 63 36 26 67 51 68 55 2 5 10 8 17 8 7 0
15 3 17 8 2 4 46 41 98 84 52 42 109 88 125 102 35 30 242 236 266 263 8 10
51 59 95 109 43 50 88 101 99 115 47 57 165 209 206 264 24 33 46 62 49 65 3
3 21 28 40 55 19 28 38 52 42 53 4 2 8 10 8 17 0 7 3 15 8 17 4 2 27 32 51 68
25 36 48 67 51 70 4 3 9 10 11 16 2 5 33 51 69 102 l65 91 28 -27 c16 -15 139
-137 273 -271z"/>
<path d="M6319 8176 c-2 -2 -38 -7 -79 -10 -84 -7 -119 -12 -210 -32 -14 -3
-36 -7 -50 -10 -27 -4 -126 -32 -150 -41 -8 -4 -18 -7 -22 -8 -5 -2 -10 -4
-13 -5 -3 -1 -8 -3 -12 -4 -31 -7 -122 -42 -173 -67 -33 -16 -63 -29 -66 -29
-7 0 -237 -131 -244 -139 -12 -14 -79 -61 -87 -61 -5 0 -15 -9 -23 -20 -8 -11
-18 -20 -22 -20 -11 0 -48 -31 -159 -136 -218 -206 -395 -471 -505 -755 -34
-89 -80 -238 -90 -292 -2 -17 -7 -33 -9 -37 -2 -3 -7 -33 -10 -65 -4 -33 -9
-63 -11 -66 -23 -39 -23 -530 0 -601 3 -7 7 -33 10 -58 3 -25 10 -63 15 -84 5
-22 8 -44 5 -48 -3 -4 0 -8 5 -8 6 0 11 -10 11 -22 0 -35 74 -247 122 -351 42
-92 156 -293 180 -319 8 -7 22 -26 32 -43 53 -84 238 -283 338 -364 17 -14 40
-34 50 -43 10 -10 22 -18 27 -18 5 0 11 -4 13 -8 4 -12 159 -118 215 -149 136
-73 165 -88 248 -122 104 -44 263 -95 277 -90 2 0 15 -4 29 -9 14 -6 43 -13
63 -16 21 -4 41 -8 45 -10 4 -3 34 -8 66 -11 33 -4 69 -10 80 -12 28 -7 417
-13 427 -7 5 3 35 7 66 9 52 4 71 6 142 20 14 3 36 8 50 10 14 3 64 16 112 29
48 13 89 21 92 18 3 -3 6 0 6 6 0 7 7 12 15 12 25 0 213 78 309 129 194 101
364 228 520 387 92 93 146 152 146 160 0 3 8 14 19 25 10 11 36 45 57 77 21
31 41 59 44 62 13 11 132 223 135 240 1 3 11 25 23 50 52 109 110 284 127 381
3 18 8 35 10 38 2 4 6 26 10 51 4 25 8 47 10 50 3 5 12 83 21 185 13 152 3
362 -27 525 -17 90 -19 103 -35 160 -8 30 -16 60 -18 65 -15 60 -64 188 -103
275 -19 41 -33 75 -31 75 1 0 -7 14 -20 32 -12 17 -22 34 -22 37 0 6 -92 158
-100 166 -3 3 -23 30 -45 60 -22 30 -44 60 -50 67 -5 6 -23 28 -40 48 -200
244 -524 477 -830 597 -93 36 -273 91 -335 102 -19 3 -46 8 -60 11 -14 3 -41
8 -60 10 -19 3 -51 8 -70 11 -42 6 -386 15 -391 10z m391 -181 c19 -3 69 -12
110 -20 41 -8 102 -21 135 -30 33 -9 67 -18 75 -20 8 -2 64 -21 123 -44 175
-65 345 -162 497 -281 194 -152 386 -374 489 -565 12 -22 26 -47 31 -55 63
-102 169 -405 184 -522 2 -21 7 -41 9 -45 28 -47 29 -555 2 -653 -2 -8 -6 -33
-10 -55 -3 -22 -15 -74 -26 -115 -11 -41 -22 -83 -24 -93 -2 -9 -7 -23 -12
-30 -4 -6 -9 -20 -10 -29 -4 -26 -94 -228 -120 -270 -13 -21 -23 -40 -23 -44
0 -7 -139 -216 -149 -224 -3 -3 -24 -27 -46 -55 -42 -52 -244 -255 -255 -255
-4 0 -22 -14 -40 -30 -50 -44 -213 -150 -305 -197 -69 -36 -219 -100 -250
-108 -5 -1 -17 -5 -25 -8 -22 -9 -150 -44 -185 -51 -63 -13 -81 -16 -125 -22
-25 -3 -67 -10 -94 -14 -55 -8 -389 -5 -451 4 -22 4 -65 11 -95 16 -30 6 -68
13 -85 15 -16 3 -41 10 -55 14 -14 5 -38 12 -55 16 -87 19 -366 138 -407 173
-10 8 -18 12 -18 9 0 -9 -144 87 -220 147 -90 71 -172 147 -275 260 -9 9 -55
67 -113 141 -55 71 -174 279 -165 289 4 3 1 6 -5 6 -7 0 -12 4 -12 10 0 5 -12
35 -26 66 -27 59 -70 185 -84 244 -58 251 -64 300 -63 520 1 153 5 226 18 290
2 14 7 41 10 60 3 19 11 53 17 75 6 22 12 50 13 62 2 12 6 27 10 32 3 6 8 19
10 28 6 31 45 144 67 192 50 110 102 211 110 211 4 0 8 6 8 13 0 14 119 192
167 249 61 74 253 258 328 314 128 97 292 194 387 230 46 17 63 24 118 48 35
15 163 53 210 62 14 3 33 7 43 10 10 3 30 7 45 9 15 3 38 7 52 10 14 3 52 8
85 11 33 4 62 8 63 9 7 6 376 -3 412 -10z"/>
<path d="M6259 7786 c-2 -3 -24 -7 -49 -10 -25 -3 -56 -8 -70 -11 -14 -3 -38
-8 -55 -11 -206 -37 -524 -187 -693 -327 -214 -178 -359 -360 -474 -592 -53
-107 -116 -287 -132 -380 -3 -16 -12 -64 -20 -105 -17 -86 -15 -452 2 -535 6
-27 14 -67 17 -88 28 -164 144 -433 260 -602 71 -102 219 -267 291 -325 11 -8
42 -33 69 -56 129 -104 325 -210 498 -268 60 -20 123 -38 140 -41 18 -3 40 -8
50 -11 10 -3 30 -7 45 -10 15 -2 54 -8 87 -13 70 -11 388 -11 449 -1 22 5 59
10 81 14 51 7 176 39 235 60 25 9 52 18 61 20 53 13 300 142 368 193 209 155
340 293 464 484 131 202 204 391 247 634 19 108 25 422 10 505 -4 25 -10 61
-13 80 -13 100 -69 281 -120 390 -17 36 -31 67 -32 70 -3 12 -30 66 -37 75 -5
6 -35 53 -69 105 -33 52 -66 100 -72 105 -7 6 -24 26 -39 46 -41 56 -165 176
-248 241 -41 33 -82 65 -90 71 -32 26 -179 108 -260 146 -120 56 -251 97 -395
125 -16 4 -41 9 -55 12 -31 6 -445 16 -451 10z m245 -96 c24 -7 60 -27 80 -46
20 -19 43 -34 50 -34 8 0 17 -4 20 -9 3 -4 -5 -6 -18 -4 -14 3 -32 1 -41 -4
-15 -9 -15 -11 -1 -26 9 -9 25 -13 38 -10 21 5 21 4 7 -8 -33 -28 -30 -57 12
-96 21 -20 39 -42 39 -48 0 -35 95 -87 154 -84 32 2 51 -3 71 -19 20 -16 32
-19 45 -12 21 11 30 48 19 78 -5 13 -4 22 1 22 6 0 10 14 10 30 0 31 3 34 53
44 15 4 37 18 49 31 12 14 29 25 39 25 10 0 19 6 22 13 12 34 295 -156 432
-290 45 -45 127 -139 171 -197 l29 -39 -28 6 c-23 6 -27 4 -27 -13 0 -11 -6
-20 -13 -20 -7 0 -20 -9 -30 -20 -12 -15 -24 -19 -42 -14 -19 5 -25 2 -25 -10
0 -9 6 -16 14 -16 17 0 53 -47 58 -75 2 -15 -3 -21 -24 -23 -16 -2 -28 1 -28
6 0 9 -58 15 -71 7 -3 -3 -3 -22 1 -43 4 -21 3 -48 -1 -60 -5 -12 -4 -24 1
-27 6 -4 10 -15 10 -26 0 -11 8 -22 18 -25 9 -3 26 -10 37 -15 14 -7 30 -7 48
0 15 6 27 8 27 5 0 -4 7 -1 15 6 8 7 15 22 15 35 0 12 9 32 20 45 11 13 20 26
20 29 0 3 16 7 35 8 31 1 37 -2 49 -30 7 -18 25 -43 40 -56 14 -14 26 -33 26
-43 0 -22 9 -23 25 -2 13 18 18 10 49 -95 14 -46 14 -57 3 -68 -11 -11 -18 -9
-43 12 -16 14 -32 25 -35 25 -3 0 -17 20 -30 45 -35 67 -98 87 -162 53 -12 -6
-30 -5 -53 2 -20 7 -36 10 -38 8 -1 -1 -15 -22 -30 -46 -16 -23 -30 -54 -30
-67 -1 -13 -11 -35 -22 -47 -10 -13 -29 -39 -41 -58 -12 -19 -34 -48 -48 -64
-41 -47 -44 -80 -14 -153 11 -28 11 -37 -4 -67 -9 -19 -12 -38 -8 -41 5 -3 7
-14 4 -25 -3 -12 5 -33 21 -54 14 -19 26 -38 26 -42 0 -4 30 -36 68 -71 56
-53 71 -62 92 -57 14 3 48 7 75 9 28 2 62 8 77 14 27 10 86 -4 89 -21 1 -4 2
-14 3 -20 1 -7 0 -17 -3 -23 -11 -21 -11 -48 1 -89 15 -53 20 -76 21 -101 1
-31 -14 -85 -24 -85 -5 0 -8 -3 -7 -7 1 -8 -4 -23 -22 -70 -5 -12 -12 -46 -16
-75 -3 -29 -7 -63 -9 -75 -3 -18 -61 -112 -97 -158 -83 -105 -135 -162 -209
-230 -37 -34 -66 -58 -164 -132 -25 -20 -70 -46 -74 -44 -2 1 -7 -2 -10 -7 -7
-11 -204 -115 -236 -124 -11 -4 -45 -15 -76 -27 -31 -11 -68 -22 -82 -25 -15
-2 -30 -7 -35 -10 -5 -3 -24 -8 -43 -11 -19 -3 -50 -10 -69 -15 -86 -22 -399
-36 -432 -19 -25 14 -12 35 36 57 23 11 48 27 55 36 8 9 24 13 42 11 21 -3 37
4 56 21 15 14 43 32 62 41 39 19 146 118 146 136 0 26 22 45 71 61 29 9 56 16
60 15 25 -4 36 6 70 59 44 67 63 112 66 149 2 16 20 45 45 72 24 25 44 51 44
58 5 49 2 67 -11 73 -61 30 -110 50 -123 50 -8 0 -52 16 -96 35 -45 19 -83 35
-86 35 -3 0 -15 0 -27 0 -18 0 -27 11 -42 48 -30 71 -59 93 -129 94 -33 0 -50
7 -80 34 -20 19 -44 34 -52 34 -9 0 -18 7 -21 15 -7 18 -69 39 -95 32 -10 -3
-22 -1 -25 4 -3 5 -20 9 -39 9 -19 0 -37 5 -40 10 -12 20 -55 11 -67 -15 -14
-32 -28 -22 -28 20 0 58 -37 80 -101 60 -19 -6 -63 17 -65 35 -1 6 -2 34 -3
63 -2 70 -10 80 -73 87 -52 5 -53 6 -56 39 -2 22 4 49 17 72 20 35 20 38 4 43
-18 6 -62 1 -70 -8 -3 -2 -12 -19 -21 -38 -16 -30 -21 -33 -60 -31 -47 1 -75
20 -98 65 -19 36 -18 102 1 118 9 7 13 15 11 18 -3 2 2 18 10 34 17 33 60 55
119 59 22 2 57 12 78 22 31 14 41 15 60 5 12 -6 31 -11 42 -10 28 3 43 -9 49
-40 13 -72 76 -122 76 -60 0 15 -5 43 -11 62 -27 89 -25 93 59 159 28 23 59
75 66 111 6 37 19 60 32 60 8 0 14 4 14 10 0 5 23 33 50 61 28 28 50 55 50 60
0 9 38 28 98 47 33 11 41 5 20 -16 -22 -22 20 -25 48 -3 15 12 37 21 50 21 21
0 41 16 32 25 -4 4 -39 12 -60 14 -4 1 -15 13 -24 27 -14 21 -15 27 -4 34 7 4
10 15 6 25 -5 13 -14 16 -47 11 -23 -3 -49 -11 -58 -18 -14 -11 -14 -11 -3 4
22 27 103 50 155 43 32 -5 54 -2 76 9 16 9 38 16 49 16 50 0 76 74 46 132 -16
32 -34 38 -96 36 -49 -2 -58 1 -62 24 -2 18 -48 78 -58 78 -5 0 -22 -10 -38
-21 -36 -27 -77 -20 -86 16 -10 41 -65 67 -142 69 l-67 1 3 -38 c1 -20 -2 -46
-9 -58 -9 -17 -7 -24 10 -40 28 -26 27 -36 -11 -71 -27 -25 -33 -38 -33 -74
-1 -24 -5 -48 -11 -54 -15 -15 -44 10 -50 45 -13 75 -29 88 -119 91 -33 1 -71
4 -83 8 -25 5 -61 41 -63 60 -5 48 32 114 70 122 45 11 101 47 101 65 0 23 11
29 58 35 20 3 48 12 61 21 l25 16 -27 23 c-31 26 -50 23 -85 -13 -23 -25 -45
-24 -36 1 4 11 -6 14 -43 14 -42 0 -52 -5 -82 -36 -29 -31 -40 -36 -85 -37
-64 -2 -164 -21 -180 -34 -6 -5 -23 -12 -36 -15 -14 -3 -42 -9 -62 -14 -33 -9
-36 -8 -26 7 5 9 46 41 91 71 45 30 84 58 87 61 3 3 19 13 35 21 17 9 55 29
85 46 139 77 377 150 550 169 30 3 56 7 58 8 8 7 149 -4 186 -15z m-1419 -846
c32 -68 38 -124 19 -170 -17 -40 -18 -124 -3 -178 6 -21 12 -48 15 -60 3 -19
24 -41 46 -48 5 -2 14 -24 19 -48 5 -25 15 -50 22 -55 11 -9 16 -22 21 -53 1
-8 7 -17 12 -20 6 -4 23 -30 38 -59 19 -34 33 -50 43 -46 12 5 12 8 -1 22 -8
9 -17 33 -21 54 -4 20 -11 37 -16 37 -5 0 -9 7 -9 15 0 8 -4 15 -8 15 -10 0
-32 45 -32 65 0 26 16 16 28 -19 7 -18 21 -41 32 -51 11 -10 20 -24 20 -31 0
-7 18 -32 40 -55 22 -24 40 -48 41 -54 1 -23 8 -44 21 -71 18 -39 166 -113
225 -114 32 0 43 -4 48 -19 5 -16 23 -31 45 -35 69 -16 103 -32 116 -57 8 -16
13 -32 12 -36 -2 -5 21 -20 51 -35 30 -16 65 -35 77 -43 29 -19 44 -19 44 -1
0 19 17 29 35 22 21 -8 8 -32 -26 -46 -16 -7 -29 -17 -29 -22 0 -6 -10 -23
-21 -40 -15 -21 -22 -47 -23 -87 -2 -49 -6 -61 -34 -89 -34 -34 -54 -103 -33
-110 9 -3 8 -9 -4 -22 -21 -23 -11 -64 20 -78 14 -7 37 -36 54 -70 36 -70 96
-133 156 -161 24 -11 47 -26 51 -33 15 -23 13 -132 -3 -168 -8 -19 -13 -54
-12 -77 2 -23 -3 -48 -10 -57 -10 -11 -11 -34 -6 -86 l7 -71 -28 6 c-79 18
-185 48 -234 67 -82 31 -245 110 -248 119 -2 5 -8 9 -13 9 -33 0 -264 182
-349 274 -82 89 -102 114 -160 198 -100 145 -179 309 -221 458 -10 36 -22 80
-28 98 -5 18 -10 33 -9 35 0 4 -15 102 -19 122 -11 51 -10 328 2 412 19 135
62 296 105 396 21 48 36 87 33 87 -2 0 5 13 16 29 12 16 21 32 21 35 0 8 31
56 35 56 2 0 16 -25 30 -56z m1365 -48 c0 -3 -4 -8 -10 -11 -5 -3 -10 -1 -10
4 0 6 5 11 10 11 6 0 10 -2 10 -4z m1510 -128 c0 -6 -1 -9 -3 -7 -2 2 -18 24
-36 49 l-33 45 36 -37 c20 -21 36 -43 36 -50z"/>
<path d="M6047 7582 c-25 -3 -54 -36 -49 -55 1 -5 -2 -6 -8 -2 -5 3 -10 15
-10 27 0 17 -4 19 -27 13 -39 -9 -54 -25 -51 -49 3 -19 10 -21 83 -22 44 -1
85 2 90 6 26 21 65 14 143 -22 46 -21 54 -43 21 -53 -11 -4 -18 -13 -15 -20 5
-15 -41 -28 -50 -14 -6 11 -44 -12 -44 -27 0 -6 13 -9 33 -7 65 8 88 5 110
-14 19 -18 45 -28 93 -38 6 -2 21 -6 34 -10 20 -6 21 -5 11 14 -7 12 -17 21
-23 21 -6 0 -9 2 -6 5 3 3 16 2 29 -3 50 -19 69 15 22 38 -44 22 -52 30 -47
45 5 11 14 9 45 -11 21 -13 39 -20 39 -14 0 5 9 10 20 10 11 0 21 5 22 10 4
28 1 33 -17 36 -34 5 -125 38 -125 45 0 5 5 11 10 14 17 11 11 24 -10 20 -11
-2 -22 0 -25 6 -4 5 -17 9 -30 9 -13 0 -27 5 -30 10 -3 6 -17 7 -31 4 -17 -4
-26 -1 -30 10 -7 19 -23 20 -61 4 -33 -13 -63 -11 -78 6 -5 6 -22 10 -38 8z"/>
<path d="M7545 7171 c-7 -22 5 -42 47 -82 10 -9 15 -18 12 -21 -3 -3 -7 -17
-9 -31 -6 -30 13 -48 60 -54 30 -4 35 -2 35 15 0 11 -7 25 -15 32 -8 7 -15 18
-15 24 0 6 -16 29 -35 50 -19 21 -32 44 -28 50 3 6 3 8 -2 4 -4 -4 -15 3 -25
14 l-17 22 -8 -23z"/>
<path d="M7510 7119 c0 -5 -5 -7 -11 -3 -8 4 -9 -4 -4 -27 9 -43 17 -51 46
-47 20 2 24 8 22 33 -3 36 -53 79 -53 44z"/>
<path d="M5930 6117 c-13 -7 -25 -18 -28 -24 -5 -18 23 -16 38 2 8 10 17 12
24 6 6 -5 27 -12 46 -16 39 -9 79 -34 80 -51 0 -7 13 -10 33 -8 17 1 38 3 45
3 15 1 11 26 -4 26 -15 1 -59 17 -64 24 -8 10 -82 39 -116 45 -16 2 -41 -1
-54 -7z"/>
<path d="M6204 6029 c-2 -4 0 -10 6 -14 19 -12 10 -22 -15 -17 -15 2 -25 0
-25 -7 0 -11 18 -15 53 -12 9 1 17 -3 17 -8 0 -6 7 -11 15 -11 8 0 15 5 15 10
0 6 16 10 35 10 41 0 45 11 10 34 -26 17 -103 27 -111 15z"/>
<path d="M6376 5993 c-12 -12 -5 -23 14 -23 11 0 20 4 20 9 0 11 -26 22 -34
14z"/>
<path d="M1630 9926 c0 -39 24 -179 42 -246 32 -119 147 -341 192 -372 6 -4 7
-8 3 -8 -15 0 116 -155 227 -267 61 -61 158 -150 216 -198 l105 -88 6 82 c4
45 8 83 10 85 16 16 169 66 230 75 68 11 149 9 169 -4 5 -3 -11 23 -34 58 -24
35 -51 88 -62 117 -16 44 -25 55 -54 67 -48 18 -164 78 -225 116 -121 75 -289
232 -387 362 -34 44 -65 79 -70 77 -5 -1 -7 1 -4 6 3 5 -10 30 -27 57 -29 43
-41 51 -102 71 -84 28 -235 34 -235 10z"/>
<path d="M11162 9916 c-78 -23 -82 -28 -189 -191 -14 -22 -29 -42 -32 -45 -3
-3 -37 -40 -75 -83 -125 -140 -288 -261 -464 -344 -72 -34 -95 -49 -103 -71
-16 -44 -59 -125 -85 -158 l-23 -32 87 1 c93 0 137 -9 244 -50 76 -29 79 -34
80 -128 1 -36 3 -65 5 -65 17 0 176 142 314 279 114 115 259 279 259 295 0 4
16 32 35 62 19 30 36 60 38 67 1 7 4 14 7 17 19 18 40 62 34 72 -4 6 -3 8 3 5
19 -12 78 202 89 322 l7 71 -79 -1 c-51 0 -104 -8 -152 -23z"/>
<path d="M1615 9299 c-49 -102 -67 -178 -67 -286 0 -156 51 -280 180 -441 29
-37 36 -41 50 -30 15 12 16 11 3 -5 -8 -9 -12 -19 -10 -20 2 -2 41 -38 86 -81
46 -42 88 -74 93 -71 6 4 9 2 8 -3 -5 -17 180 -155 304 -226 l47 -27 45 26
c49 29 318 125 351 125 17 1 16 4 -10 23 -44 33 -235 187 -270 218 -16 15 -41
37 -55 49 -14 12 -74 67 -134 123 -60 56 -114 101 -120 99 -6 -2 -8 -1 -4 3 4
4 2 13 -5 20 -7 7 -19 21 -28 31 -36 44 -173 199 -179 204 -8 7 -177 236 -217
295 l-32 48 -36 -74z"/>
<path d="M11357 9352 c-10 -10 -17 -24 -17 -30 0 -7 -4 -12 -8 -12 -4 0 -16
-15 -27 -32 -32 -55 -179 -249 -225 -298 -74 -78 -100 -112 -94 -122 4 -6 3
-8 -3 -5 -5 3 -60 -45 -121 -107 -62 -62 -112 -111 -112 -108 0 3 -21 -15 -47
-40 -63 -60 -195 -175 -257 -222 -27 -20 -69 -53 -93 -73 l-44 -36 132 -43
c72 -24 137 -41 143 -37 6 3 8 3 4 -1 -4 -5 24 -23 62 -42 l68 -34 64 37 c34
20 79 48 98 63 19 14 71 53 115 85 371 274 535 567 470 842 -18 75 -74 213
-87 213 -5 0 -6 5 -3 10 10 16 -1 11 -18 -8z"/>
<path d="M1596 8472 c-33 -65 -48 -143 -42 -222 15 -195 153 -386 432 -598 34
-26 76 -58 94 -71 54 -41 204 -134 218 -134 6 0 10 -3 7 -5 -9 -10 80 -62 95
-56 8 3 11 2 7 -2 -4 -4 14 -19 40 -34 27 -14 68 -37 93 -51 25 -14 79 -45
122 -68 l76 -42 7 33 c4 18 19 51 33 72 24 35 43 47 106 70 18 6 17 9 -10 37
-15 16 -34 27 -42 24 -7 -2 -11 -1 -7 4 3 5 -10 18 -27 30 -18 11 -44 30 -58
43 -14 13 -56 48 -95 78 -38 30 -76 60 -83 67 -8 7 -18 10 -24 7 -7 -4 -8 -2
-4 4 4 6 -6 19 -21 29 -15 10 -30 20 -33 24 -15 18 -141 119 -149 119 -5 0
-12 7 -15 16 -3 8 -11 12 -17 8 -8 -4 -9 -3 -5 4 4 6 -4 16 -16 23 -13 7 -27
18 -33 24 -5 7 -53 50 -105 96 -53 46 -125 110 -160 141 -36 31 -134 125 -217
207 l-153 151 -14 -28z"/>
<path d="M11242 8330 c-94 -92 -172 -166 -172 -164 0 2 -24 -19 -52 -48 -29
-28 -52 -55 -50 -60 1 -5 -2 -7 -8 -3 -5 3 -52 -31 -103 -77 -116 -103 -220
-192 -277 -238 -24 -19 -52 -43 -62 -52 -10 -10 -21 -18 -24 -18 -3 0 -24 -16
-47 -35 -60 -50 -170 -137 -255 -203 l-74 -56 49 -22 c56 -24 88 -59 105 -115
6 -22 16 -39 21 -39 9 0 95 44 207 107 19 11 67 37 105 58 76 43 211 128 235
150 8 7 18 13 21 12 12 -4 261 186 336 256 127 120 231 274 263 389 19 71 9
200 -21 269 l-24 57 -173 -168z"/>
<path d="M1139 7898 c-7 -24 -13 -81 -13 -128 -1 -75 3 -93 31 -153 34 -72
107 -156 185 -213 27 -20 53 -32 59 -28 7 4 9 3 6 -3 -7 -11 178 -118 273
-158 36 -15 160 -60 276 -100 116 -39 215 -74 220 -77 5 -3 27 -11 49 -18 22
-7 62 -24 89 -37 26 -13 55 -22 64 -18 9 3 13 3 9 -1 -8 -8 41 -35 155 -85 40
-18 90 -43 111 -56 21 -13 43 -21 49 -17 6 4 9 3 5 -2 -4 -7 120 -84 136 -84
1 0 11 17 22 38 24 44 38 57 88 81 l37 18 -66 33 c-37 18 -84 48 -104 66 -20
19 -41 30 -45 26 -5 -4 -5 -2 -2 4 10 18 -63 80 -126 108 -32 14 -117 58 -190
97 -72 40 -137 72 -144 72 -7 0 -13 4 -13 8 0 9 -91 62 -107 62 -7 0 -11 2 -9
5 3 2 -41 36 -97 74 -56 38 -120 84 -143 102 -25 19 -84 47 -149 70 -163 56
-366 163 -515 271 -129 94 -127 93 -141 43z"/>
<path d="M11845 7931 c-5 -10 -30 -27 -155 -111 -171 -115 -364 -211 -521
-259 -32 -11 -78 -36 -106 -58 -26 -22 -84 -64 -128 -93 -44 -29 -92 -61 -107
-71 -31 -22 -65 -41 -173 -99 -44 -23 -88 -50 -99 -59 -10 -9 -20 -15 -22 -13
-2 1 -32 -12 -67 -30 -34 -18 -64 -33 -67 -33 -22 -6 -58 -30 -54 -36 3 -5 -2
-6 -11 -3 -10 4 -37 -16 -84 -62 -76 -77 -84 -83 -160 -119 l-54 -26 29 -15
c39 -20 114 -98 114 -119 0 -7 71 29 144 73 32 19 119 63 192 97 73 34 131 64
129 67 -2 2 4 4 13 5 14 0 131 45 247 94 11 4 97 34 190 65 207 70 277 98 391
159 279 149 396 278 411 450 6 74 -12 189 -28 180 -5 -3 -6 1 -3 9 7 17 -11
22 -21 7z"/>
<path d="M1437 7064 c-8 -8 35 -93 76 -154 84 -122 255 -267 430 -361 152 -83
247 -129 305 -148 135 -46 397 -76 733 -84 l156 -4 -5 97 c-4 85 -1 112 27
222 17 68 31 127 31 131 0 12 -69 7 -103 -7 -42 -17 -98 -82 -132 -152 -15
-30 -31 -54 -37 -54 -11 0 -316 151 -363 180 -16 10 -33 19 -37 20 -7 1 -65
27 -208 92 -25 12 -51 21 -57 21 -7 0 -13 4 -13 9 0 5 -4 7 -9 4 -5 -4 -11 -2
-13 2 -8 22 -363 143 -503 173 -85 18 -264 26 -278 13z"/>
<path d="M11360 7063 c-162 -28 -628 -192 -613 -216 3 -6 1 -7 -4 -4 -14 9
-165 -57 -155 -68 4 -4 2 -5 -5 -1 -11 6 -380 -175 -444 -217 -24 -16 -27 -16
-40 0 -8 10 -24 35 -34 56 -49 96 -129 160 -194 155 l-39 -3 18 -60 c38 -131
54 -285 36 -361 l-7 -31 163 3 c439 11 711 54 857 138 23 12 38 26 34 30 -4 4
-1 5 7 1 20 -7 215 102 310 173 113 84 171 138 235 217 38 48 106 175 99 187
-5 8 -178 9 -224 1z"/>
</g>
</svg>
